<?xml version="1.0" encoding="UTF-8" standalone="no"?>
<!DOCTYPE svg PUBLIC "-//W3C//DTD SVG 1.1//EN"
 "http://www.w3.org/Graphics/SVG/1.1/DTD/svg11.dtd">
<!-- Generated by graphviz version 2.43.0 (0)
 -->
<!-- Title: dependency&#45;cruiser output Pages: 1 -->
<svg width="94pt" height="75pt"
 viewBox="0.00 0.00 94.00 75.00" xmlns="http://www.w3.org/2000/svg" xmlns:xlink="http://www.w3.org/1999/xlink">
<g id="graph0" class="graph" transform="scale(1 1) rotate(0) translate(4 71)">
<title>dependency&#45;cruiser output</title>
<polygon fill="white" stroke="transparent" points="-4,4 -4,-71 90,-71 90,4 -4,4"/>
<g id="clust1" class="cluster">
<title>cluster_src</title>
<path fill="#ffffff" stroke="black" stroke-width="2" d="M20,-8C20,-8 66,-8 66,-8 72,-8 78,-14 78,-20 78,-20 78,-47 78,-47 78,-53 72,-59 66,-59 66,-59 20,-59 20,-59 14,-59 8,-53 8,-47 8,-47 8,-20 8,-20 8,-14 14,-8 20,-8"/>
<text text-anchor="middle" x="43" y="-47.8" font-family="Helvetica,sans-Serif" font-weight="bold" font-size="9.00">src</text>
</g>
<!-- src/index.js -->
<g id="node1" class="node">
<title>src/index.js</title>
<g id="a_node1"><a xlink:href="src/index.js" xlink:title="index.js">
<path fill="#ccffcc" stroke="black" d="M64.33,-33.5C64.33,-33.5 21.67,-33.5 21.67,-33.5 18.83,-33.5 16,-30.67 16,-27.83 16,-27.83 16,-22.17 16,-22.17 16,-19.33 18.83,-16.5 21.67,-16.5 21.67,-16.5 64.33,-16.5 64.33,-16.5 67.17,-16.5 70,-19.33 70,-22.17 70,-22.17 70,-27.83 70,-27.83 70,-30.67 67.17,-33.5 64.33,-33.5"/>
<text text-anchor="middle" x="43" y="-22.3" font-family="Helvetica,sans-Serif" font-size="9.00">index.js</text>
</a>
</g>
</g>
</g>
</svg>
